<svg width="378" height="73" viewBox="0 0 378 73" fill="none" xmlns="http://www.w3.org/2000/svg">
<path d="M28.0909 38C27.9697 36.4848 27.4015 35.303 26.3864 34.4545C25.3864 33.6061 23.8636 33.1818 21.8182 33.1818C20.5152 33.1818 19.447 33.3409 18.6136 33.6591C17.7955 33.9621 17.1894 34.3788 16.7955 34.9091C16.4015 35.4394 16.197 36.0455 16.1818 36.7273C16.1515 37.2879 16.25 37.7955 16.4773 38.25C16.7197 38.6894 17.0985 39.0909 17.6136 39.4545C18.1288 39.803 18.7879 40.1212 19.5909 40.4091C20.3939 40.697 21.3485 40.9545 22.4545 41.1818L26.2727 42C28.8485 42.5455 31.053 43.2652 32.8864 44.1591C34.7197 45.053 36.2197 46.1061 37.3864 47.3182C38.553 48.5152 39.4091 49.8636 39.9545 51.3636C40.5152 52.8636 40.803 54.5 40.8182 56.2727C40.803 59.3333 40.0379 61.9242 38.5227 64.0455C37.0076 66.1667 34.8409 67.7803 32.0227 68.8864C29.2197 69.9924 25.8485 70.5455 21.9091 70.5455C17.8636 70.5455 14.3333 69.947 11.3182 68.75C8.31818 67.553 5.98485 65.7121 4.31818 63.2273C2.66667 60.7273 1.83333 57.5303 1.81818 53.6364H13.8182C13.8939 55.0606 14.25 56.2576 14.8864 57.2273C15.5227 58.197 16.4167 58.9318 17.5682 59.4318C18.7348 59.9318 20.1212 60.1818 21.7273 60.1818C23.0758 60.1818 24.2045 60.0152 25.1136 59.6818C26.0227 59.3485 26.7121 58.8864 27.1818 58.2955C27.6515 57.7045 27.8939 57.0303 27.9091 56.2727C27.8939 55.5606 27.6591 54.9394 27.2045 54.4091C26.7652 53.8636 26.0379 53.3788 25.0227 52.9545C24.0076 52.5152 22.6364 52.1061 20.9091 51.7273L16.2727 50.7273C12.1515 49.8333 8.90152 48.3409 6.52273 46.25C4.15909 44.1439 2.98485 41.2727 3 37.6364C2.98485 34.6818 3.77273 32.0985 5.36364 29.8864C6.9697 27.6591 9.18939 25.9242 12.0227 24.6818C14.8712 23.4394 18.1364 22.8182 21.8182 22.8182C25.5758 22.8182 28.8258 23.447 31.5682 24.7045C34.3106 25.9621 36.4242 27.7348 37.9091 30.0227C39.4091 32.2955 40.1667 34.9545 40.1818 38H28.0909ZM56.4941 70H38.585V23.4545H56.3123C61.1002 23.4545 65.2365 24.3864 68.7214 26.25C72.2214 28.0985 74.9183 30.7651 76.8123 34.25C78.7214 37.7197 79.6759 41.8788 79.6759 46.7273C79.6759 51.5758 78.7289 55.7424 76.835 59.2273C74.9411 62.697 72.2592 65.3636 68.7895 67.2273C65.3198 69.0758 61.2214 70 56.4941 70ZM51.2214 59.2727H56.0395C58.3426 59.2727 60.3047 58.9015 61.9259 58.1591C63.5623 57.4167 64.8047 56.1364 65.6532 54.3182C66.5168 52.5 66.9486 49.9697 66.9486 46.7273C66.9486 43.4848 66.5092 40.9545 65.6305 39.1364C64.7668 37.3182 63.4941 36.0379 61.8123 35.2955C60.1456 34.553 58.1002 34.1818 55.6759 34.1818H51.2214V59.2727ZM95.3916 70.6364C91.6643 70.6364 88.4522 69.9242 85.7552 68.5C83.0734 67.0606 81.0052 65 79.5507 62.3182C78.1113 59.6212 77.3916 56.3939 77.3916 52.6364C77.3916 49.0303 78.1189 45.8788 79.5734 43.1818C81.028 40.4848 83.081 38.3864 85.7325 36.8864C88.384 35.3864 91.5128 34.6364 95.1189 34.6364C97.7552 34.6364 100.142 35.0455 102.278 35.8636C104.414 36.6818 106.24 37.8712 107.755 39.4318C109.27 40.9773 110.437 42.8561 111.255 45.0682C112.073 47.2803 112.482 49.7727 112.482 52.5455V55.4545H81.3007V48.5455H100.937C100.922 47.5455 100.664 46.6667 100.164 45.9091C99.6795 45.1364 99.0204 44.5379 98.187 44.1136C97.3689 43.6742 96.437 43.4545 95.3916 43.4545C94.3764 43.4545 93.4446 43.6742 92.5961 44.1136C91.7477 44.5379 91.0658 45.1288 90.5507 45.8864C90.0507 46.6439 89.7855 47.5303 89.7552 48.5455V56C89.7552 57.1212 89.9901 58.1212 90.4598 59C90.9295 59.8788 91.6037 60.5682 92.4825 61.0682C93.3613 61.5682 94.4219 61.8182 95.6643 61.8182C96.528 61.8182 97.3158 61.697 98.028 61.4545C98.7552 61.2121 99.3764 60.8636 99.8916 60.4091C100.407 59.9394 100.786 59.3788 101.028 58.7273H112.482C112.089 61.1515 111.157 63.2576 109.687 65.0455C108.217 66.8182 106.27 68.197 103.846 69.1818C101.437 70.1515 98.6189 70.6364 95.3916 70.6364ZM127.38 70.6364C123.592 70.6364 120.35 69.8864 117.653 68.3864C114.956 66.8712 112.888 64.7652 111.448 62.0682C110.009 59.3561 109.289 56.2121 109.289 52.6364C109.289 49.0606 110.009 45.9242 111.448 43.2273C112.888 40.5152 114.956 38.4091 117.653 36.9091C120.35 35.3939 123.592 34.6364 127.38 34.6364C130.804 34.6364 133.766 35.2576 136.266 36.5C138.782 37.7273 140.728 39.4697 142.107 41.7273C143.486 43.9697 144.183 46.6061 144.198 49.6364H132.562C132.395 47.803 131.865 46.4091 130.971 45.4545C130.092 44.4848 128.956 44 127.562 44C126.471 44 125.516 44.3182 124.698 44.9545C123.88 45.5758 123.244 46.5227 122.789 47.7955C122.335 49.053 122.107 50.6364 122.107 52.5455C122.107 54.4545 122.335 56.0455 122.789 57.3182C123.244 58.5758 123.88 59.5227 124.698 60.1591C125.516 60.7803 126.471 61.0909 127.562 61.0909C128.486 61.0909 129.304 60.8788 130.016 60.4545C130.728 60.0152 131.304 59.3788 131.744 58.5455C132.198 57.697 132.471 56.6667 132.562 55.4545H144.198C144.153 58.5303 143.448 61.2121 142.085 63.5C140.721 65.7727 138.789 67.5303 136.289 68.7727C133.804 70.0152 130.835 70.6364 127.38 70.6364ZM153.607 61.7273L153.698 46.8182H155.334L163.789 35.0909H177.88L163.698 53.3636H160.152L153.607 61.7273ZM142.334 70V23.4545H154.88V70H142.334ZM163.88 70L155.88 56.1818L164.062 47.2727L178.243 70H163.88Z" fill="white"/>
<path fill-rule="evenodd" clip-rule="evenodd" d="M378 0H178V70H378V0ZM198.091 38.6364V34.0909H190.636V25.7273H185.273V34.0909H180V38.6364H185.273V60.4545C185.273 62.4848 185.742 64.1667 186.682 65.5C187.636 66.8333 188.833 67.8258 190.273 68.4773C191.727 69.1288 193.212 69.4545 194.727 69.4545C195.727 69.4545 196.553 69.3788 197.205 69.2273C197.856 69.0909 198.364 68.9545 198.727 68.8182L197.636 64L196.727 64.1818C196.348 64.2424 195.864 64.2727 195.273 64.2727C194.485 64.2727 193.735 64.1515 193.023 63.9091C192.326 63.6515 191.75 63.1515 191.295 62.4091C190.856 61.6515 190.636 60.5152 190.636 59V38.6364H198.091ZM224.47 67.4773C226.849 68.9773 229.614 69.7273 232.766 69.7273C235.917 69.7273 238.675 68.9773 241.039 67.4773C243.417 65.9773 245.266 63.8788 246.584 61.1818C247.917 58.4848 248.584 55.3333 248.584 51.7273C248.584 48.0909 247.917 44.9167 246.584 42.2045C245.266 39.4924 243.417 37.3864 241.039 35.8864C238.675 34.3864 235.917 33.6364 232.766 33.6364C229.614 33.6364 226.849 34.3864 224.47 35.8864C222.107 37.3864 220.258 39.4924 218.925 42.2045C217.607 44.9167 216.948 48.0909 216.948 51.7273C216.948 55.3333 217.607 58.4848 218.925 61.1818C220.258 63.8788 222.107 65.9773 224.47 67.4773ZM238.675 63.0682C237.13 64.2955 235.16 64.9091 232.766 64.9091C230.372 64.9091 228.402 64.2955 226.857 63.0682C225.311 61.8409 224.167 60.2273 223.425 58.2273C222.683 56.2273 222.311 54.0606 222.311 51.7273C222.311 49.3939 222.683 47.2197 223.425 45.2045C224.167 43.1894 225.311 41.5606 226.857 40.3182C228.402 39.0758 230.372 38.4545 232.766 38.4545C235.16 38.4545 237.13 39.0758 238.675 40.3182C240.22 41.5606 241.364 43.1894 242.107 45.2045C242.849 47.2197 243.22 49.3939 243.22 51.7273C243.22 54.0606 242.849 56.2273 242.107 58.2273C241.364 60.2273 240.22 61.8409 238.675 63.0682ZM275.458 67.4773C277.837 68.9773 280.602 69.7273 283.753 69.7273C286.905 69.7273 289.662 68.9773 292.026 67.4773C294.405 65.9773 296.253 63.8788 297.572 61.1818C298.905 58.4848 299.572 55.3333 299.572 51.7273C299.572 48.0909 298.905 44.9167 297.572 42.2045C296.253 39.4924 294.405 37.3864 292.026 35.8864C289.662 34.3864 286.905 33.6364 283.753 33.6364C280.602 33.6364 277.837 34.3864 275.458 35.8864C273.094 37.3864 271.246 39.4924 269.912 42.2045C268.594 44.9167 267.935 48.0909 267.935 51.7273C267.935 55.3333 268.594 58.4848 269.912 61.1818C271.246 63.8788 273.094 65.9773 275.458 67.4773ZM289.662 63.0682C288.117 64.2955 286.147 64.9091 283.753 64.9091C281.359 64.9091 279.39 64.2955 277.844 63.0682C276.299 61.8409 275.155 60.2273 274.412 58.2273C273.67 56.2273 273.299 54.0606 273.299 51.7273C273.299 49.3939 273.67 47.2197 274.412 45.2045C275.155 43.1894 276.299 41.5606 277.844 40.3182C279.39 39.0758 281.359 38.4545 283.753 38.4545C286.147 38.4545 288.117 39.0758 289.662 40.3182C291.208 41.5606 292.352 43.1894 293.094 45.2045C293.837 47.2197 294.208 49.3939 294.208 51.7273C294.208 54.0606 293.837 56.2273 293.094 58.2273C292.352 60.2273 291.208 61.8409 289.662 63.0682ZM325.923 69V22.4545H320.559V69H325.923ZM368.456 43.2727L373.274 41.9091C372.441 39.4242 371.031 37.4242 369.047 35.9091C367.077 34.3939 364.365 33.6364 360.91 33.6364C358.456 33.6364 356.259 34.0682 354.319 34.9318C352.395 35.7955 350.872 36.9848 349.751 38.5C348.645 40.0152 348.092 41.7576 348.092 43.7273C348.092 46.1364 348.834 48.1439 350.319 49.75C351.819 51.3409 354.168 52.5152 357.365 53.2727L363.183 54.6364C364.941 55.0455 366.244 55.6667 367.092 56.5C367.941 57.3182 368.365 58.3333 368.365 59.5455C368.365 61.0455 367.622 62.3333 366.137 63.4091C364.668 64.4697 362.683 65 360.183 65C357.986 65 356.206 64.5303 354.842 63.5909C353.494 62.6515 352.577 61.2424 352.092 59.3636L347.001 60.6364C347.622 63.6061 349.1 65.8636 351.433 67.4091C353.766 68.9545 356.713 69.7273 360.274 69.7273C362.986 69.7273 365.365 69.2727 367.41 68.3636C369.456 67.4545 371.047 66.2121 372.183 64.6364C373.334 63.0606 373.91 61.2727 373.91 59.2727C373.91 56.8333 373.145 54.8409 371.615 53.2955C370.084 51.7348 367.759 50.5758 364.637 49.8182L359.456 48.5455C357.395 48.0303 355.88 47.3864 354.91 46.6136C353.941 45.8409 353.456 44.7879 353.456 43.4545C353.456 41.9545 354.16 40.7197 355.569 39.75C356.994 38.7652 358.774 38.2727 360.91 38.2727C362.471 38.2727 363.751 38.5227 364.751 39.0227C365.751 39.5227 366.539 40.1591 367.115 40.9318C367.706 41.6894 368.153 42.4697 368.456 43.2727Z" fill="white"/>
</svg>
